<svg width="25" height="24" viewBox="0 0 25 24" fill="none" xmlns="http://www.w3.org/2000/svg">
<path d="M17 6H14C13.4477 6 13 6.44772 13 7V10H17C17.1137 9.99748 17.2216 10.0504 17.2892 10.1419C17.3568 10.2334 17.3758 10.352 17.34 10.46L16.6 12.66C16.5318 12.8619 16.3431 12.9984 16.13 13H13V20.5C13 20.7761 12.7761 21 12.5 21H10C9.72386 21 9.5 20.7761 9.5 20.5V13H8C7.72386 13 7.5 12.7761 7.5 12.5V10.5C7.5 10.2239 7.72386 10 8 10H9.5V7C9.5 4.79086 11.2909 3 13.5 3H17C17.2761 3 17.5 3.22386 17.5 3.5V5.5C17.5 5.77614 17.2761 6 17 6Z" fill="black"/>
</svg>
