<svg width="25" height="24" viewBox="0 0 25 24" fill="none" xmlns="http://www.w3.org/2000/svg">
<path fill-rule="evenodd" clip-rule="evenodd" d="M16.5 3H8.5C5.73858 3 3.5 5.23858 3.5 8V16C3.5 18.7614 5.73858 21 8.5 21H16.5C19.2614 21 21.5 18.7614 21.5 16V8C21.5 5.23858 19.2614 3 16.5 3ZM19.75 16C19.7445 17.7926 18.2926 19.2445 16.5 19.25H8.5C6.70735 19.2445 5.25549 17.7926 5.25 16V8C5.25549 6.20735 6.70735 4.75549 8.5 4.75H16.5C18.2926 4.75549 19.7445 6.20735 19.75 8V16ZM17.25 8.25C17.8023 8.25 18.25 7.80228 18.25 7.25C18.25 6.69772 17.8023 6.25 17.25 6.25C16.6977 6.25 16.25 6.69772 16.25 7.25C16.25 7.80228 16.6977 8.25 17.25 8.25ZM12.5 7.5C10.0147 7.5 8 9.51472 8 12C8 14.4853 10.0147 16.5 12.5 16.5C14.9853 16.5 17 14.4853 17 12C17.0027 10.8057 16.5294 9.65957 15.6849 8.81508C14.8404 7.97059 13.6943 7.49734 12.5 7.5ZM9.75 12C9.75 13.5188 10.9812 14.75 12.5 14.75C14.0188 14.75 15.25 13.5188 15.25 12C15.25 10.4812 14.0188 9.25 12.5 9.25C10.9812 9.25 9.75 10.4812 9.75 12Z" fill="black"/>
</svg>
