<svg width="25" height="24" viewBox="0 0 25 24" fill="none" xmlns="http://www.w3.org/2000/svg">
<path d="M21.4728 6.7174C21.0084 7.33692 20.447 7.87733 19.8103 8.31776C19.8103 8.47959 19.8103 8.64142 19.8103 8.81225C19.8154 11.7511 18.6415 14.5691 16.5518 16.6345C14.462 18.6999 11.6312 19.8399 8.69405 19.7989C6.99599 19.8046 5.31967 19.4169 3.79642 18.6661C3.71428 18.6302 3.66131 18.549 3.66162 18.4593V18.3604C3.66162 18.2313 3.76623 18.1267 3.89527 18.1267C5.56442 18.0716 7.17402 17.4929 8.49634 16.4724C6.98553 16.4419 5.62619 15.5469 5.0006 14.1707C4.96901 14.0956 4.97884 14.0093 5.02657 13.9432C5.07429 13.8771 5.153 13.8407 5.23425 13.8471C5.69342 13.8932 6.15718 13.8505 6.6002 13.7212C4.93239 13.375 3.67921 11.9904 3.49986 10.2957C3.49349 10.2144 3.52992 10.1357 3.596 10.0879C3.66207 10.0402 3.74824 10.0303 3.82338 10.062C4.27094 10.2595 4.75409 10.3635 5.24324 10.3676C3.78184 9.40846 3.15061 7.58405 3.70655 5.92622C3.76394 5.76513 3.90181 5.64612 4.0695 5.61294C4.23718 5.57975 4.40996 5.63728 4.52432 5.76439C6.49639 7.86325 9.20604 9.11396 12.0819 9.25279C12.0083 8.95885 11.9721 8.65676 11.9741 8.35372C12.001 6.76472 12.9842 5.34921 14.4634 4.76987C15.9425 4.19054 17.6249 4.56203 18.723 5.71044C19.4714 5.56785 20.195 5.31645 20.8707 4.96421C20.9202 4.93331 20.983 4.93331 21.0325 4.96421C21.0634 5.01373 21.0634 5.07652 21.0325 5.12604C20.7052 5.87552 20.1523 6.50412 19.4509 6.92419C20.0651 6.85296 20.6685 6.70807 21.2482 6.49264C21.297 6.45942 21.3611 6.45942 21.4099 6.49264C21.4508 6.51134 21.4814 6.54711 21.4935 6.59042C21.5056 6.63373 21.498 6.68018 21.4728 6.7174Z" fill="black"/>
</svg>
